# xmcd
#
# Track frame offsets:
#	183
#	15178
#	29983
#	41960
#	56208
#	71755
#	84665
#	100458
#	113118
#	125843
#	141703
#	154355
#	165000
#	178185
#	189748
#	207130
#
# Disc length: 2969 seconds
#
# Revision: 1
# Processed by: cddbd v1.5.2PL0 Copyright (c) Steve Scherf et al.
# Submitted via: EasyCDDAExtractor 8.2.3.1
#
DISCID=f50b9710
DTITLE=Mick Flavin - Lights Of Home
DYEAR=1993
DGENRE=Country
TTITLE0=Someday You'll Love Me
TTITLE1=I See An Angel Everyday
TTITLE2=On The Wings Of Love
TTITLE3=It Started All Over Again
TTITLE4=For A Minute There
TTITLE5=One Of These Days (I Want To Be In Your Nights)
TTITLE6=I Never Loved You More
TTITLE7=The Little Thngs In Life
TTITLE8=The Lights Of Home
TTITLE9=Connemara Rose
TTITLE10=The Keeper Of My Heart
TTITLE11=You Done Me Wrong
TTITLE12=Old Home In Mayo
TTITLE13=The Table In The Corner
TTITLE14=The Little Mountain Church House
TTITLE15=Longford On My Mind
EXTD=
EXTT0=
EXTT1=
EXTT2=
EXTT3=
EXTT4=
EXTT5=
EXTT6=
EXTT7=
EXTT8=
EXTT9=
EXTT10=
EXTT11=
EXTT12=
EXTT13=
EXTT14=
EXTT15=
PLAYORDER=
